<?xml version="1.0" encoding="UTF-8" standalone="no"?>
<!-- Created with Inkscape (http://www.inkscape.org/) -->

<svg
   width="210mm"
   height="297mm"
   viewBox="0 0 210 297"
   version="1.1"
   id="svg1"
   xml:space="preserve"
   inkscape:version="1.4.3 (fcd0343856, 2026-01-01)"
   sodipodi:docname="jg-2.svg"
   inkscape:export-filename="jg.png"
   inkscape:export-xdpi="187.42184"
   inkscape:export-ydpi="187.42184"
   xmlns:inkscape="http://www.inkscape.org/namespaces/inkscape"
   xmlns:sodipodi="http://sodipodi.sourceforge.net/DTD/sodipodi-0.dtd"
   xmlns:xlink="http://www.w3.org/1999/xlink"
   xmlns="http://www.w3.org/2000/svg"
   xmlns:svg="http://www.w3.org/2000/svg"><sodipodi:namedview
     id="namedview1"
     pagecolor="#ffffff"
     bordercolor="#000000"
     borderopacity="0.25"
     inkscape:showpageshadow="2"
     inkscape:pageopacity="0.0"
     inkscape:pagecheckerboard="0"
     inkscape:deskcolor="#d1d1d1"
     inkscape:document-units="mm"
     inkscape:zoom="2.1291386"
     inkscape:cx="311.86321"
     inkscape:cy="325.24891"
     inkscape:window-width="2560"
     inkscape:window-height="1403"
     inkscape:window-x="0"
     inkscape:window-y="0"
     inkscape:window-maximized="1"
     inkscape:current-layer="layer1"
     showguides="false"><inkscape:page
       x="0"
       y="0"
       width="210"
       height="297"
       id="page34"
       margin="0"
       bleed="0" /><inkscape:page
       x="220"
       y="0"
       width="395.81665"
       height="395.81668"
       id="page35"
       margin="0"
       bleed="0" /></sodipodi:namedview><defs
     id="defs1"><linearGradient
       id="linearGradient4"
       inkscape:collect="always"><stop
         style="stop-color:#5c16ff;stop-opacity:1;"
         offset="0.00439985"
         id="stop4" /><stop
         style="stop-color:#16d3ff;stop-opacity:0;"
         offset="1"
         id="stop5" /></linearGradient><linearGradient
       id="linearGradient2"
       x1="12"
       y1="29.9992"
       x2="71.999"
       y2="63.001"
       gradientUnits="userSpaceOnUse"><stop
         stop-color="#AA5CC3"
         id="stop1"
         offset="0" /><stop
         offset="1"
         stop-color="#00A4DC"
         id="stop2"
         style="stop-color:#a2a2a2;stop-opacity:1;" /></linearGradient><linearGradient
       id="linearGradient17"
       inkscape:collect="always"><stop
         style="stop-color:#009dda;stop-opacity:1;"
         offset="0.00262004"
         id="stop16" /><stop
         style="stop-color:#57b8dc;stop-opacity:0;"
         offset="0.73771751"
         id="stop17" /></linearGradient><linearGradient
       id="linearGradient8"
       inkscape:collect="always"><stop
         style="stop-color:#00a6e9;stop-opacity:1;"
         offset="0.00262004"
         id="stop9" /><stop
         style="stop-color:#57b8dc;stop-opacity:0;"
         offset="0.73771751"
         id="stop10" /></linearGradient><rect
       x="346.72213"
       y="588.49772"
       width="98.30436"
       height="61.108116"
       id="rect2" /><linearGradient
       id="linearGradient80"
       x1="12"
       y1="29.9992"
       x2="71.999"
       y2="63.001"
       gradientUnits="userSpaceOnUse"><stop
         stop-color="#AA5CC3"
         id="stop79"
         offset="0"
         style="stop-color:#5cc393;stop-opacity:1;" /><stop
         offset="1"
         stop-color="#00A4DC"
         id="stop80" /></linearGradient><rect
       x="214.64079"
       y="55.891148"
       width="73.269067"
       height="50.255065"
       id="rect36" /><inkscape:path-effect
       effect="bspline"
       id="path-effect24"
       is_visible="true"
       lpeversion="1.3"
       weight="33.333333"
       steps="2"
       helper_size="0"
       apply_no_weight="true"
       apply_with_weight="true"
       only_selected="false"
       uniform="false" /><inkscape:path-effect
       effect="bspline"
       id="path-effect23"
       is_visible="true"
       lpeversion="1.3"
       weight="33.333333"
       steps="2"
       helper_size="0"
       apply_no_weight="true"
       apply_with_weight="true"
       only_selected="false"
       uniform="false" /><inkscape:path-effect
       effect="bspline"
       id="path-effect24-6"
       is_visible="true"
       lpeversion="1.3"
       weight="33.333333"
       steps="2"
       helper_size="0"
       apply_no_weight="true"
       apply_with_weight="true"
       only_selected="false"
       uniform="false" /><inkscape:path-effect
       effect="bspline"
       id="path-effect24-8"
       is_visible="true"
       lpeversion="1.3"
       weight="33.333333"
       steps="2"
       helper_size="0"
       apply_no_weight="true"
       apply_with_weight="true"
       only_selected="false"
       uniform="false" /><inkscape:path-effect
       effect="bspline"
       id="path-effect24-6-7"
       is_visible="true"
       lpeversion="1.3"
       weight="33.333333"
       steps="2"
       helper_size="0"
       apply_no_weight="true"
       apply_with_weight="true"
       only_selected="false"
       uniform="false" /><inkscape:path-effect
       effect="bspline"
       id="path-effect24-2"
       is_visible="true"
       lpeversion="1.3"
       weight="33.333333"
       steps="2"
       helper_size="0"
       apply_no_weight="true"
       apply_with_weight="true"
       only_selected="false"
       uniform="false" /><inkscape:path-effect
       effect="bspline"
       id="path-effect24-1"
       is_visible="true"
       lpeversion="1.3"
       weight="33.333333"
       steps="2"
       helper_size="0"
       apply_no_weight="true"
       apply_with_weight="true"
       only_selected="false"
       uniform="false" /><inkscape:path-effect
       effect="bspline"
       id="path-effect24-1-0"
       is_visible="true"
       lpeversion="1.3"
       weight="33.333333"
       steps="2"
       helper_size="0"
       apply_no_weight="true"
       apply_with_weight="true"
       only_selected="false"
       uniform="false" /><inkscape:path-effect
       effect="bspline"
       id="path-effect24-1-0-6"
       is_visible="true"
       lpeversion="1.3"
       weight="33.333333"
       steps="2"
       helper_size="0"
       apply_no_weight="true"
       apply_with_weight="true"
       only_selected="false"
       uniform="false" /><inkscape:path-effect
       effect="bspline"
       id="path-effect24-9"
       is_visible="true"
       lpeversion="1.3"
       weight="33.333333"
       steps="2"
       helper_size="0"
       apply_no_weight="true"
       apply_with_weight="true"
       only_selected="false"
       uniform="false" /><inkscape:path-effect
       effect="bspline"
       id="path-effect24-96"
       is_visible="true"
       lpeversion="1.3"
       weight="33.333333"
       steps="2"
       helper_size="0"
       apply_no_weight="true"
       apply_with_weight="true"
       only_selected="false"
       uniform="false" /><inkscape:path-effect
       effect="bspline"
       id="path-effect24-9-3"
       is_visible="true"
       lpeversion="1.3"
       weight="33.333333"
       steps="2"
       helper_size="0"
       apply_no_weight="true"
       apply_with_weight="true"
       only_selected="false"
       uniform="false" /><inkscape:path-effect
       effect="bspline"
       id="path-effect24-0"
       is_visible="true"
       lpeversion="1.3"
       weight="33.333333"
       steps="2"
       helper_size="0"
       apply_no_weight="true"
       apply_with_weight="true"
       only_selected="false"
       uniform="false" /><inkscape:path-effect
       effect="bspline"
       id="path-effect24-3"
       is_visible="true"
       lpeversion="1.3"
       weight="33.333333"
       steps="2"
       helper_size="0"
       apply_no_weight="true"
       apply_with_weight="true"
       only_selected="false"
       uniform="false" /><inkscape:path-effect
       effect="bspline"
       id="path-effect24-0-1"
       is_visible="true"
       lpeversion="1.3"
       weight="33.333333"
       steps="2"
       helper_size="0"
       apply_no_weight="true"
       apply_with_weight="true"
       only_selected="false"
       uniform="false" /><linearGradient
       id="paint0_linear_2142_3739"
       x1="11.9999"
       y1="30.0006"
       x2="71.9989"
       y2="63.0024"
       gradientUnits="userSpaceOnUse"><stop
         stop-color="#AA5CC3"
         id="stop12" /><stop
         offset="1"
         stop-color="#00A4DC"
         id="stop13" /></linearGradient><linearGradient
       id="paint1_linear_2142_3739"
       x1="12"
       y1="29.9992"
       x2="71.999"
       y2="63.001"
       gradientUnits="userSpaceOnUse"><stop
         stop-color="#AA5CC3"
         id="stop14" /><stop
         offset="1"
         stop-color="#00A4DC"
         id="stop15" /></linearGradient><clipPath
       id="clip0_2142_3739"><rect
         width="251"
         height="72"
         fill="white"
         id="rect15" /></clipPath><radialGradient
       inkscape:collect="always"
       xlink:href="#paint1_linear_2142_3739"
       id="radialGradient84"
       cx="96.691185"
       cy="74.235851"
       fx="96.691185"
       fy="74.235851"
       r="17.426006"
       gradientTransform="matrix(1,0,0,0.37758174,0,46.205749)"
       gradientUnits="userSpaceOnUse" /><radialGradient
       inkscape:collect="always"
       xlink:href="#paint1_linear_2142_3739"
       id="radialGradient88"
       gradientUnits="userSpaceOnUse"
       gradientTransform="matrix(1,0,0,0.37758174,-0.37280335,46.143615)"
       cx="96.691185"
       cy="74.235851"
       fx="96.691185"
       fy="74.235851"
       r="17.426006" /><linearGradient
       id="paint1_linear_2142_3739-0"
       x1="12"
       y1="29.999201"
       x2="71.999001"
       y2="63.000999"
       gradientUnits="userSpaceOnUse"><stop
         stop-color="#AA5CC3"
         id="stop14-9" /><stop
         offset="1"
         stop-color="#00A4DC"
         id="stop15-2" /></linearGradient><radialGradient
       inkscape:collect="always"
       xlink:href="#paint1_linear_2142_3739-0"
       id="radialGradient1"
       cx="96.691185"
       cy="74.235847"
       fx="96.691185"
       fy="74.235847"
       r="17.426006"
       gradientTransform="matrix(1,0,0,0.37758174,0,46.205749)"
       gradientUnits="userSpaceOnUse" /><inkscape:path-effect
       effect="bspline"
       id="path-effect24-5"
       is_visible="true"
       lpeversion="1.3"
       weight="33.333333"
       steps="2"
       helper_size="0"
       apply_no_weight="true"
       apply_with_weight="true"
       only_selected="false"
       uniform="false" /><inkscape:path-effect
       effect="bspline"
       id="path-effect24-5-5"
       is_visible="true"
       lpeversion="1.3"
       weight="33.333333"
       steps="2"
       helper_size="0"
       apply_no_weight="true"
       apply_with_weight="true"
       only_selected="false"
       uniform="false" /><inkscape:path-effect
       effect="bspline"
       id="path-effect24-36"
       is_visible="true"
       lpeversion="1.3"
       weight="33.333333"
       steps="2"
       helper_size="0"
       apply_no_weight="true"
       apply_with_weight="true"
       only_selected="false"
       uniform="false" /><linearGradient
       inkscape:collect="always"
       xlink:href="#linearGradient8"
       id="linearGradient10"
       x1="6.2110303"
       y1="152.34095"
       x2="138.68523"
       y2="152.34095"
       gradientUnits="userSpaceOnUse" /><radialGradient
       inkscape:collect="always"
       xlink:href="#paint1_linear_2142_3739"
       id="radialGradient84-7"
       cx="96.691185"
       cy="74.235847"
       fx="96.691185"
       fy="74.235847"
       r="17.426006"
       gradientTransform="matrix(1,0,0,0.37758174,0,46.205749)"
       gradientUnits="userSpaceOnUse" /><linearGradient
       inkscape:collect="always"
       xlink:href="#linearGradient8"
       id="linearGradient10-5"
       x1="6.2110305"
       y1="152.34094"
       x2="138.68523"
       y2="152.34094"
       gradientUnits="userSpaceOnUse" /><inkscape:path-effect
       effect="bspline"
       id="path-effect24-91"
       is_visible="true"
       lpeversion="1.3"
       weight="33.333333"
       steps="2"
       helper_size="0"
       apply_no_weight="true"
       apply_with_weight="true"
       only_selected="false"
       uniform="false" /><radialGradient
       inkscape:collect="always"
       xlink:href="#paint1_linear_2142_3739"
       id="radialGradient88-2"
       gradientUnits="userSpaceOnUse"
       gradientTransform="matrix(1,0,0,0.37758174,-0.37280335,46.143615)"
       cx="96.691185"
       cy="74.235847"
       fx="96.691185"
       fy="74.235847"
       r="17.426006" /><radialGradient
       inkscape:collect="always"
       xlink:href="#paint1_linear_2142_3739"
       id="radialGradient84-2"
       cx="96.691185"
       cy="74.235847"
       fx="96.691185"
       fy="74.235847"
       r="17.426006"
       gradientTransform="matrix(1,0,0,0.37758174,0,46.205749)"
       gradientUnits="userSpaceOnUse" /><inkscape:path-effect
       effect="bspline"
       id="path-effect24-20"
       is_visible="true"
       lpeversion="1.3"
       weight="33.333333"
       steps="2"
       helper_size="0"
       apply_no_weight="true"
       apply_with_weight="true"
       only_selected="false"
       uniform="false" /><inkscape:path-effect
       effect="bspline"
       id="path-effect24-91-9"
       is_visible="true"
       lpeversion="1.3"
       weight="33.333333"
       steps="2"
       helper_size="0"
       apply_no_weight="true"
       apply_with_weight="true"
       only_selected="false"
       uniform="false" /><linearGradient
       inkscape:collect="always"
       xlink:href="#linearGradient17"
       id="linearGradient11"
       gradientUnits="userSpaceOnUse"
       x1="6.2110305"
       y1="152.34094"
       x2="138.68523"
       y2="152.34094" /><linearGradient
       inkscape:collect="always"
       xlink:href="#paint1_linear_2142_3739"
       id="linearGradient12"
       gradientUnits="userSpaceOnUse"
       x1="12"
       y1="29.9992"
       x2="71.999"
       y2="63.001" /><linearGradient
       inkscape:collect="always"
       xlink:href="#linearGradient4"
       id="linearGradient5"
       x1="79.660751"
       y1="74.411011"
       x2="114.11768"
       y2="74.411011"
       gradientUnits="userSpaceOnUse" /><linearGradient
       inkscape:collect="always"
       xlink:href="#linearGradient4"
       id="linearGradient6"
       gradientUnits="userSpaceOnUse"
       x1="79.660751"
       y1="74.411011"
       x2="114.11768"
       y2="74.411011" /></defs><g
     inkscape:label="Layer 1"
     inkscape:groupmode="layer"
     id="layer1"
     transform="translate(0.49707113,1.9882845)"><text
       xml:space="preserve"
       style="font-size:44.0978px;writing-mode:lr-tb;direction:ltr;fill:#ccff00;fill-opacity:0.932657;stroke-width:0.616334"
       x="78.702843"
       y="102.23801"
       id="text1"
       transform="scale(1.0151527,0.98507347)"><tspan
         sodipodi:role="line"
         id="tspan1"
         style="font-style:normal;font-variant:normal;font-weight:bold;font-stretch:condensed;font-size:44.0978px;font-family:Ubuntu;-inkscape-font-specification:'Ubuntu Bold Condensed';fill:#ccff00;fill-opacity:0.932657;stroke-width:0.616334"
         x="78.702843"
         y="102.23801">J</tspan></text><text
       xml:space="preserve"
       style="font-size:36.0949px;writing-mode:lr-tb;direction:ltr;fill:#00cdff;fill-opacity:0.641692;stroke-width:0.504483"
       x="84.275673"
       y="105.37405"
       id="text1-3"
       transform="scale(1.0444185,0.95747059)"><tspan
         sodipodi:role="line"
         id="tspan1-5"
         style="font-style:normal;font-variant:normal;font-weight:bold;font-stretch:condensed;font-size:36.0949px;font-family:Ubuntu;-inkscape-font-specification:'Ubuntu Bold Condensed';fill:#00cdff;fill-opacity:0.641692;stroke-width:0.504483"
         x="84.275673"
         y="105.37405">G</tspan></text><g
       id="g27"
       transform="matrix(0.11820244,0,0,0.11820244,64.098452,61.945297)"
       style="fill:#ffcc00;fill-opacity:1;stroke:none;stroke-opacity:1"><path
         style="fill:#ffcc00;fill-opacity:1;stroke:none;stroke-opacity:1"
         d="m 67.562945,176.91666 c 6.812699,-0.007 17.944833,-0.007 24.738076,0 6.793244,0.007 1.219218,0.0136 -12.386724,0.0136 -13.605942,0 -19.16405,-0.006 -12.351352,-0.0136 z"
         id="path30" /><path
         style="fill:#ffcc00;fill-opacity:1;stroke:none;stroke-opacity:1"
         d="m 67.771847,170.89209 c 6.663686,-0.007 17.567899,-0.007 24.231585,0 6.663686,0.007 1.211579,0.0136 -12.115793,0.0136 -13.327371,0 -18.779478,-0.006 -12.115792,-0.0136 z"
         id="path29" /><path
         style="fill:#ffcc00;fill-opacity:1;stroke:none;stroke-opacity:1"
         d="m 54.616415,176.8686 c -1.802578,-0.17702 -3.367562,-0.61023 -4.878306,-1.3504 -2.387185,-1.16957 -4.343357,-2.95244 -5.704631,-5.19925 -0.988945,-1.63227 -1.607631,-3.399 -1.867019,-5.33148 -0.11426,-0.85125 -0.114628,-2.50794 -7.46e-4,-3.35883 0.323579,-2.41769 1.30635,-4.76457 2.768075,-6.61022 1.74697,-2.20582 4.120787,-3.83063 6.769678,-4.63364 0.865564,-0.2624 1.789689,-0.44929 2.555623,-0.51684 1.084841,-0.0957 0.92747,0.0262 1.252372,-0.97008 0.566349,-1.73667 1.546565,-3.56919 2.715352,-5.07637 2.267447,-2.92395 5.390466,-4.95304 8.945242,-5.81192 1.048821,-0.2534 1.859867,-0.35327 3.09226,-0.38077 0.951919,-0.0212 1.144854,-0.0101 1.79866,0.10381 0.824459,0.14364 0.739964,0.16691 1.02472,-0.28225 0.300874,-0.47457 1.069693,-1.47882 1.632648,-2.13259 4.419704,-5.13267 10.572187,-7.54381 16.923214,-6.63215 2.165162,0.3108 3.974706,0.8737 5.885003,1.83067 5.07524,2.54246 8.87538,7.34762 10.24472,12.95414 l 0.22254,0.91116 0.30092,0.0837 c 2.12282,0.59053 3.95018,1.45046 5.61903,2.64425 2.24974,1.60932 3.9387,3.58149 5.15154,6.01537 1.39066,2.79071 1.91204,5.66437 1.60093,8.8236 -0.57776,5.86679 -4.31668,11.04755 -9.73217,13.48518 -1.46767,0.66063 -2.90847,1.07675 -4.66005,1.34589 -0.57602,0.0885 -2.05336,0.0942 -26.041834,0.10058 -13.987143,0.004 -25.51514,-10e-4 -25.617771,-0.0116 z m 50.968965,-6.05875 c 1.75268,-0.28711 3.08777,-0.79249 4.42513,-1.67508 2.61492,-1.7257 4.33159,-4.53208 4.68937,-7.66608 0.071,-0.62187 0.0709,-1.85266 -2.8e-4,-2.42722 -0.19968,-1.61302 -0.7936,-3.24422 -1.66527,-4.57362 -1.337,-2.03911 -3.2493,-3.48967 -5.63916,-4.27755 -0.88083,-0.29038 -1.53944,-0.40173 -3.14216,-0.53124 -0.77679,-0.0628 -1.41441,-0.11835 -1.41693,-0.12351 -0.003,-0.005 -0.0929,-0.8131 -0.20084,-1.79543 -0.10794,-0.98232 -0.24656,-2.02596 -0.30803,-2.31919 -0.68591,-3.27172 -2.419241,-6.0712 -5.005625,-8.08451 -1.962942,-1.52801 -4.515389,-2.54517 -6.950425,-2.76977 -0.852425,-0.0786 -2.734267,-0.0349 -3.472622,0.0808 -1.891331,0.29618 -3.833421,1.04885 -5.42038,2.1007 -0.859333,0.56958 -1.536058,1.13429 -2.286568,1.90808 -1.368243,1.41069 -2.027303,2.45953 -3.384925,5.38685 l -0.176929,0.38149 -0.310201,-0.0746 c -2.761287,-0.66421 -3.370566,-0.76835 -4.495415,-0.76835 -2.503705,0 -4.953936,0.89883 -6.864864,2.51827 -1.792255,1.51888 -3.109884,3.78437 -3.527691,6.06541 -0.06177,0.33722 -0.185329,1.40432 -0.274584,2.37133 -0.08926,0.96701 -0.17265,1.76857 -0.185323,1.78124 -0.02281,0.0228 -1.719593,-0.25816 -2.902761,-0.48067 -0.786927,-0.14799 -1.983194,-0.16088 -2.707814,-0.0292 -0.600863,0.10922 -1.575575,0.41762 -2.008895,0.63562 -2.196781,1.1052 -3.622988,2.95551 -4.14041,5.37164 -0.168584,0.78721 -0.170033,2.18042 -0.0031,2.96242 0.157213,0.73637 0.344415,1.29547 0.623727,1.86283 1.211005,2.45987 3.581726,4.05037 6.317139,4.23811 0.307893,0.0211 11.655953,0.0349 25.21791,0.0307 23.046106,-0.007 24.694696,-0.0137 25.217906,-0.0994 z"
         id="path28" /></g><path
       style="fill:#000000"
       id="path27"
       d="" /><path
       style="fill:#000000"
       id="path26"
       d="" /><g
       style="fill:none"
       id="g34"
       transform="matrix(0.08273939,0,0,0.08273939,110.37105,89.083391)"><g
         clip-path="url(#clip0_2142_3739)"
         id="g12"><mask
           id="mask0_2142_3739"
           maskUnits="userSpaceOnUse"
           x="0"
           y="0"
           width="251"
           height="72"><path
             d="M 251,0 H 0 v 72 h 251 z"
             fill="#ffffff"
             id="path1" /></mask><g
           mask="url(#mask0_2142_3739)"
           id="g11"><path
             d="m 24.2116,49.1581 c -1.5517,-3.1157 8.6262,-21.5702 11.7883,-21.5702 3.1667,0.0016 13.3229,18.4885 11.7883,21.5702 -1.5346,3.0817 -22.025,3.1157 -23.5766,0 z"
             fill="url(#paint0_linear_2142_3739)"
             id="path2"
             style="fill:url(#paint0_linear_2142_3739)" /><path
             fill-rule="evenodd"
             clip-rule="evenodd"
             d="M 0.481861,64.9951 C -4.19479,55.6047 26.4765,0 36,0 c 9.5328,0 40.153,55.713 35.5274,64.9951 -4.6256,9.2822 -66.36888,9.3905 -71.045539,0 z M 12.7358,56.847 c 3.0647,6.1525 43.5178,6.0844 46.5485,0 3.0306,-6.086 -17.0328,-42.5865 -23.275,-42.5865 -6.2423,0 -26.33812,36.4339 -23.2735,42.5865 z"
             fill="url(#paint1_linear_2142_3739)"
             id="path3"
             style="fill:url(#linearGradient12)"
             sodipodi:nodetypes="ssssccsc" /></g></g></g><text
       xml:space="preserve"
       transform="scale(0.26458333)"
       id="text36"
       style="font-style:normal;font-variant:normal;font-weight:normal;font-stretch:normal;font-size:10.6667px;font-family:Ubuntu;-inkscape-font-specification:Ubuntu;writing-mode:lr-tb;direction:ltr;white-space:pre;shape-inside:url(#rect36);display:inline;fill:#4d4d4d;fill-opacity:1;stroke:none;stroke-opacity:1" /><text
       xml:space="preserve"
       transform="scale(0.26458333)"
       id="text2"
       style="font-size:10.6667px;font-family:Ubuntu;-inkscape-font-specification:Ubuntu;writing-mode:lr-tb;direction:ltr;white-space:pre;shape-inside:url(#rect2);fill:#96f517;fill-opacity:1;stroke:#000000;stroke-width:1.54205" /></g><g
     id="g33"
     transform="translate(-1.6946171,14.897971)"
     style="fill:none;stroke:url(#radialGradient84)"><path
       style="fill:none;fill-opacity:1;stroke:url(#linearGradient10);stroke-width:1.26421;stroke-dasharray:none"
       d="m 6.2133889,133.96067 c 22.2025111,-0.0828 44.4050221,-0.16569 55.5477001,5.92355 11.142678,6.08924 11.225521,18.35009 22.202726,24.52205 10.977206,6.17197 32.847895,6.25481 54.719025,6.33766"
       id="path24"
       inkscape:path-effect="#path-effect24"
       inkscape:original-d="m 6.2133889,133.96067 c 22.2025111,-0.0828 44.4050221,-0.16569 66.6075321,-0.24854 0.08285,12.26133 0.16569,24.52218 0.248533,36.78326 21.871567,0.0829 43.742256,0.16569 65.613386,0.24854"
       transform="matrix(0.26010299,0,0,0.34553469,78.04524,21.771931)" /><circle
       style="fill:none;fill-opacity:1;stroke:url(#radialGradient88);stroke-width:0.408;stroke-dasharray:none"
       id="path33-9-1"
       cx="79.326965"
       cy="68.028564"
       r="0.38057002" /></g><g
     id="g33-9"
     transform="matrix(1,0,0,-1,-1.4225891,164.18742)"
     style="fill:none;stroke:url(#radialGradient84-7)"><path
       style="fill:none;fill-opacity:1;stroke:url(#linearGradient10-5);stroke-width:1.26421;stroke-dasharray:none"
       d="m 6.2133889,133.96067 c 22.2025111,-0.0828 44.4050221,-0.16569 55.5477001,5.92355 11.142678,6.08924 11.225521,18.35009 22.202726,24.52205 10.977206,6.17197 32.847895,6.25481 54.719025,6.33766"
       id="path24-3"
       inkscape:path-effect="#path-effect24-91"
       inkscape:original-d="m 6.2133889,133.96067 c 22.2025111,-0.0828 44.4050221,-0.16569 66.6075321,-0.24854 0.08285,12.26133 0.16569,24.52218 0.248533,36.78326 21.871567,0.0829 43.742256,0.16569 65.613386,0.24854"
       transform="matrix(0.26010299,0,0,0.34553469,78.04524,21.771931)" /><circle
       style="fill:none;fill-opacity:1;stroke:url(#radialGradient88-2);stroke-width:0.408;stroke-dasharray:none"
       id="path33-9-1-6"
       cx="79.326965"
       cy="68.028564"
       r="0.38057002" /></g><g
     id="g33-8"
     transform="matrix(-1,0,0,1,193.95873,16.483386)"
     style="fill:none;stroke:url(#radialGradient84-2)"><path
       style="fill:none;fill-opacity:1;stroke:url(#linearGradient11);stroke-width:1.26421;stroke-dasharray:none"
       d="m 6.2133889,133.96067 c 22.2025111,-0.0828 44.4050221,-0.16569 55.5477001,5.92355 11.142678,6.08924 11.225521,18.35009 22.202726,24.52205 10.977206,6.17197 32.847895,6.25481 54.719025,6.33766"
       id="path24-9"
       inkscape:path-effect="#path-effect24-20"
       inkscape:original-d="m 6.2133889,133.96067 c 22.2025111,-0.0828 44.4050221,-0.16569 66.6075321,-0.24854 0.08285,12.26133 0.16569,24.52218 0.248533,36.78326 21.871567,0.0829 43.742256,0.16569 65.613386,0.24854"
       transform="matrix(0.26010299,0,0,0.34553469,78.04524,21.771931)" /></g><g
     id="g33-9-3"
     transform="rotate(180,96.608407,81.306753)"
     style="fill:none;stroke:url(#linearGradient5)"><path
       style="fill:none;fill-opacity:1;stroke:url(#linearGradient6);stroke-width:1.26421;stroke-dasharray:none;stroke-opacity:1"
       d="m 6.2133889,133.96067 c 22.2025111,-0.0828 44.4050221,-0.16569 55.5477001,5.92355 11.142678,6.08924 11.225521,18.35009 22.202726,24.52205 10.977206,6.17197 32.847895,6.25481 54.719025,6.33766"
       id="path24-3-6"
       inkscape:path-effect="#path-effect24-91-9"
       inkscape:original-d="m 6.2133889,133.96067 c 22.2025111,-0.0828 44.4050221,-0.16569 66.6075321,-0.24854 0.08285,12.26133 0.16569,24.52218 0.248533,36.78326 21.871567,0.0829 43.742256,0.16569 65.613386,0.24854"
       transform="matrix(0.26010299,0,0,0.34553469,78.04524,21.771931)" /></g><g
     id="g30"
     transform="matrix(0.8624883,0,0,0.8624883,-8.2444865,31.951481)"
     style="fill:#00ccff"><path
       style="fill:#00ccff;fill-opacity:1"
       d="m 144.92858,64.346518 c -0.40276,-0.401754 -0.7466,-0.764998 -0.76409,-0.807207 -0.0175,-0.04221 -0.0234,-0.110867 -0.0131,-0.152573 0.0258,-0.104778 1.44679,-1.530084 1.56405,-1.568784 0.0599,-0.01978 0.10926,-0.01943 0.16338,0.0011 0.0906,0.03446 0.4376,0.369166 1.08328,1.045036 0.42762,0.447608 0.46256,0.491816 0.46256,0.585318 0,0.09433 -0.0352,0.137305 -0.52338,0.638443 -0.28786,0.295515 -0.62725,0.638953 -0.7542,0.763194 -0.22238,0.217638 -0.23548,0.225893 -0.35849,0.225893 h -0.12767 z m 2.50207,-2.479956 c -0.39707,-0.395313 -0.74072,-0.754341 -0.76367,-0.797841 -0.0816,-0.154729 -0.0508,-0.197575 0.69282,-0.962208 0.38631,-0.397226 0.74432,-0.742137 0.7956,-0.766467 0.18323,-0.08695 0.20866,-0.06822 0.99423,0.731948 0.43544,0.443538 0.73528,0.770467 0.74983,0.817554 0.0159,0.05141 0.0131,0.105424 -0.008,0.156651 -0.0178,0.043 -0.36193,0.406896 -0.76469,0.808651 l -0.73231,0.730463 h -0.12085 -0.12086 z m -5.10327,-0.09583 c -0.38621,-0.387784 -0.70982,-0.730998 -0.71914,-0.762699 -0.009,-0.0317 -0.007,-0.08251 0.004,-0.112904 0.0116,-0.0304 0.3397,-0.38 0.72907,-0.776899 l 0.70795,-0.721634 0.0519,0.06406 c 0.0494,0.06101 0.0519,0.130959 0.0519,1.469363 0,1.378544 -0.01,1.545775 -0.0885,1.545775 -0.0193,0 -0.3511,-0.317277 -0.73731,-0.70506 z m 1.89635,-0.229979 c -0.0395,-0.113321 -0.042,-3.117201 -0.003,-3.254222 0.0205,-0.0714 0.19806,-0.26623 0.70496,-0.773433 0.70644,-0.706867 0.77707,-0.760552 0.92712,-0.704694 0.0892,0.03319 1.44391,1.368775 1.50487,1.483584 0.0518,0.09764 0.0497,0.212948 -0.005,0.296458 -0.0862,0.130461 -3.00851,3.038535 -3.05338,3.038535 -0.0262,0 -0.058,-0.03634 -0.0754,-0.08623 z"
       id="path32" /></g><g
     id="g1"
     inkscape:groupmode="layer"
     inkscape:label="1"
     transform="matrix(0.26458333,0,0,0.26458334,220.00001,0)"><g
       style="fill:#ffcc00"
       id="g35"
       transform="matrix(0.06272505,0,0,0.06272505,-561.78576,349.2706)"><g
         id="g2"
         style="fill:#ffcc00">
	<g
   id="g1-1"
   style="fill:#ffcc00">
		<path
   d="m 505.4,297.954 c -0.1,-0.2 -82.4,-217.9 -82.7,-218.4 -7.3,-14 -21.7,-22.7 -37.5,-22.7 H 122.8 c -15.8,0 -30.2,8.7 -37.5,22.7 -0.3,0.5 -82.7,218.2 -82.7,218.4 -1.6,4.5 -2.6,9.4 -2.6,14.4 v 96.4 c 0,23.3 19,42.3 42.3,42.3 h 423.3 c 23.3,0 42.3,-19 42.3,-42.3 v -96.4 c 0.1,-5.1 -0.8,-9.9 -2.5,-14.4 z m -436.6,-95.5 h 40.9 c 7.8,0 14.1,-6.3 14.1,-14.1 0,-7.8 -6.3,-14.1 -14.1,-14.1 H 79.5 l 10.7,-28.3 h 61.9 c 7.8,0 14.1,-6.3 14.1,-14.1 0,-7.8 -6.3,-14.1 -14.1,-14.1 h -51.2 l 9.7,-25.8 c 2.5,-4.3 7.1,-6.9 12.2,-6.9 h 262.5 c 5,0 9.6,2.6 12.2,7 l 67.3,178 H 43.3 Z m 396.9,220.4 H 42.3 c -7.8,0 -14.1,-6.3 -14.1,-14.1 v -96.4 c 0,-7.8 6.3,-14.1 14.1,-14.1 h 423.3 c 7.8,0 14.1,6.3 14.1,14.1 v 96.4 h 0.1 c 0,7.8 -6.3,14.1 -14.1,14.1 z"
   id="path1-8"
   style="fill:#ffcc00" />
	</g>
</g><g
         id="g4"
         style="fill:#ffcc00">
	<g
   id="g3"
   style="fill:#ffcc00">
		<path
   d="M 277,346.454 H 67.3 c -7.8,0 -14.1,6.3 -14.1,14.1 0,7.8 6.3,14.1 14.1,14.1 H 277 c 7.8,0 14.1,-6.3 14.1,-14.1 0,-7.8 -6.3,-14.1 -14.1,-14.1 z"
   id="path2-9"
   style="fill:#ffcc00" />
	</g>
</g><g
         id="g6"
         style="fill:#ffcc00">
	<g
   id="g5"
   style="fill:#ffcc00">
		<path
   d="m 440.7,346.454 h -21.6 c -7.8,0 -14.1,6.3 -14.1,14.1 0,7.8 6.3,14.1 14.1,14.1 h 21.6 c 7.8,0 14.1,-6.3 14.1,-14.1 0,-7.8 -6.3,-14.1 -14.1,-14.1 z"
   id="path4-6"
   style="fill:#ffcc00" />
	</g>
</g><g
         id="g8"
         style="fill:#ffcc00">
	<g
   id="g7"
   style="fill:#ffcc00">
		<path
   d="m 356,346.454 h -21.6 c -7.8,0 -14.1,6.3 -14.1,14.1 0,7.8 6.3,14.1 14.1,14.1 H 356 c 7.8,0 14.1,-6.3 14.1,-14.1 0,-7.8 -6.3,-14.1 -14.1,-14.1 z"
   id="path6-4"
   style="fill:#ffcc00" />
	</g>
</g></g></g></svg>
